<svg id="Layer_1" data-name="Layer 1" xmlns="http://www.w3.org/2000/svg" viewBox="0 0 283.46 215.16"><title>pwc-black-logo</title><g id="Layer_2" data-name="Layer 2"><g id="Layer_1-2" data-name="Layer 1-2"><path d="M191.94,142.1c-9.12,1.48-13.79,8.22-13.79,20.07s6.21,19.92,15.74,19.92c4.43,0,8.46-1.48,16.92-5.63v9.65c-10.16,4.66-16.14,6.11-24.32,6.11-8.87,0-15.1-2.36-20.19-7.55a27.29,27.29,0,0,1-7.83-19.79c0-17.08,12.64-28.63,31.11-28.63,12.27,0,20.7,5.6,20.7,13.83,0,5.3-3.92,8.95-9.75,8.95a16,16,0,0,1-8.59-2.61Z"/><path d="M146.92,164.88C155.1,154.57,158,150.41,158,145.35a9.09,9.09,0,0,0-9.1-9.1h-.25a10.83,10.83,0,0,0-7.7,3.17v21l-13.41,17.86V137.57H114.79L93.61,172.69V137.57H86.29l-19.23,4.69v4.91l10.49,1.07V191.3H91.1l20.32-33.38V191.3h14.85Z"/><path d="M26.57,184.67c1.45.07,2.08.07,3,.07,10.92,0,16.77-6.81,16.77-19.86,0-11-4.79-16.92-13.62-16.92a52.46,52.46,0,0,0-6.14.56Zm0,23.54,8.79,1.95v5H.88v-5l7.86-1.95V148H0v-5.17l21.1-6.41h5.47v7.2c9.88-5.88,13.28-6.92,18.35-6.92,11.7,0,20.34,10.79,20.34,25.74,0,17.28-11.53,28.9-29.69,28.9a82,82,0,0,1-9-.53Z"/><rect x="127.56" y="92.38" width="52.79" height="13.2"/><path d="M270.07,66V26.38H243.36V10.31H233V0H180.36V92.38h103.1V66Zm-2.64-37V66H243.36V29ZM183,55.4h27.63V66H183ZM183,13h47.38V26.38H183Zm47.37,16V66H213.26V52.76H183V29ZM183,68.63h27.63V89.75H183Zm30.27,0h17.11V89.75H213.26Zm19.75,0h7.72V89.75H233ZM233,66V29h7.72V66Zm7.72-53V26.38H233V13ZM183,2.64h47.38v7.67H183Zm60.37,87.11V68.63h24.07V89.75Zm37.47,0H270.07V68.63h10.76Z"/></g></g></svg>